<?xml version="1.0" encoding="utf-8"?>
<!-- Generator: Adobe Illustrator 15.1.0, SVG Export Plug-In  -->
<!DOCTYPE svg [
	<!ENTITY ns_flows "http://ns.adobe.com/Flows/1.0/">
]>
<svg version="1.2" baseProfile="tiny"
	 xmlns="http://www.w3.org/2000/svg" xmlns:xlink="http://www.w3.org/1999/xlink" xmlns:a="http://ns.adobe.com/AdobeSVGViewerExtensions/3.0/"
	 x="0px" y="0px" width="479px" height="298px" viewBox="-13.616 -27.311 479 298" overflow="visible" xml:space="preserve">
<defs>
</defs>
<path fill="#FFFFFF" d="M242.381,90.377c-3.983,4.004-7.957,5.907-14.525,5.907c-13.116,0-25.703-11.973-22.67-25.382
	c6.05-26.737,34.004-14.721,37.992-10.854l17.833-19.419c-1.336-0.815-14.751-11.993-33.031-12.493
	c-26.608-0.727-48.232,20.949-48.232,46.784c0,25.821,21.613,46.787,48.232,46.787c13.331,0,25.38-5.334,34.122-13.757
	c0.033-0.031,0.071-0.064,0.104-0.098L242.381,90.377z"/>
<path fill="#009F88" d="M260.476,108.405c-6.157,6.183-23.22,13.921-33.359,13.921c-20.25,0-47.011-15.665-47.011-51.743
	c0-19.665,21.201-49.805,59.084-39.59c9.793,2.641,14.867,4.998,21.024,10.967l19.522-19.054
	c-2.07-1.259-22.775-18.518-50.999-19.29c-41.086-1.122-74.467,32.346-74.467,72.232c0,39.866,33.366,72.23,74.467,72.23
	c20.585,0,39.182-8.232,52.68-21.236c0.054-0.05,0.107-0.1,0.161-0.153L260.476,108.405z"/>
<path fill="#3A3938" d="M263.998,108.497l0.1-0.102l-21.224-20.927l-1.792,1.854c-3.473,3.594-8.302,5.494-13.966,5.494
	c-11.304,0-19.507-8.201-19.507-19.5c0-11.311,8.203-19.52,19.507-19.52c5.542,0,10.514,1.917,13.995,5.397l1.812,1.813
	l20.892-21.056l-0.045-0.047l18.086-18.229l-1.801-1.801C265.952,7.77,247.119,0,227.023,0c-41.53,0-75.317,33.786-75.317,75.317
	c0,41.53,33.787,75.317,75.317,75.317c20.075,0,39.054-7.917,53.439-22.294l1.821-1.821L263.998,108.497z M251.405,47.115
	c-6.452-5.513-15.008-8.521-24.382-8.521c-21.265,0-36.7,15.443-36.7,36.723c0,21.261,15.436,36.689,36.7,36.689
	c9.47,0,18.042-3.072,24.428-8.702l5.236,5.157c-8.224,7.311-18.622,11.311-29.571,11.311c-24.514,0-44.457-19.943-44.457-44.455
	s19.943-44.455,44.457-44.455c10.979,0,21.314,3.93,29.389,11.112L251.405,47.115z M242.804,55.876
	c-4.244-3.36-9.725-5.187-15.688-5.187c-14.265,0-24.615,10.356-24.615,24.628c0,14.259,10.351,24.607,24.615,24.607
	c6.029,0,11.521-1.865,15.737-5.303l5.046,4.973c-5.465,4.773-12.621,7.305-20.876,7.305c-18.307,0-31.593-13.283-31.593-31.582
	c0-18.318,13.286-31.615,31.593-31.615c8.026,0,15.32,2.511,20.813,7.1L242.804,55.876z M227.023,145.527
	c-38.713,0-70.21-31.497-70.21-70.21c0-38.712,31.497-70.209,70.21-70.209c17.872,0,34.672,6.591,47.593,18.613l-14.51,14.624
	c-9.041-8.137-20.655-12.591-32.99-12.591c-27.331,0-49.564,22.233-49.564,49.562s22.233,49.562,49.564,49.562
	c12.322,0,24.016-4.537,33.218-12.825l14.668,14.461C261.824,138.793,244.887,145.527,227.023,145.527z"/>
<path fill="#3A3938" d="M16.742,242.973V229.69l-4.844,13.282H9.793l-4.865-13.349v13.349H2.96v-15.838h3.168l4.707,12.941
	l4.706-12.941h3.17v15.838H16.742z"/>
<path fill="#3A3938" d="M35.229,242.973v-15.838h11.087v1.991h-9.12v4.93h7.128v1.991h-7.128v4.959h9.12v1.967H35.229z"/>
<path fill="#3A3938" d="M74.327,240.665c-1.54,1.54-3.4,2.308-5.587,2.308h-5.929v-15.838h5.929c2.187,0,4.048,0.775,5.587,2.327
	c1.554,1.557,2.332,3.419,2.332,5.59C76.659,237.242,75.881,239.109,74.327,240.665z M72.947,230.865
	c-1.166-1.158-2.566-1.739-4.208-1.739h-3.96v11.88h3.96c1.61,0,3.013-0.581,4.208-1.743c1.162-1.194,1.741-2.598,1.741-4.211
	C74.688,233.425,74.109,232.026,72.947,230.865z"/>
<path fill="#3A3938" d="M92.969,242.973v-15.838h1.971v15.838H92.969z"/>
<path fill="#3A3938" d="M111.459,242.973v-15.838h11.086v1.991h-9.12v4.93h7.129v1.991h-7.129v4.959h9.12v1.967H111.459z"/>
<path fill="#3A3938" d="M149.721,242.973l-8.709-12.266v12.266h-1.971v-15.838h1.971l8.709,12.286v-12.286h1.994v15.838H149.721z"/>
<path fill="#3A3938" d="M179.977,242.383c-1.224,0.664-2.545,0.996-3.962,0.996c-2.278,0-4.238-0.813-5.884-2.444
	c-1.614-1.659-2.421-3.618-2.421-5.883c0-2.262,0.807-4.216,2.421-5.859c1.631-1.631,3.591-2.443,5.884-2.443
	c1.327,0,2.579,0.294,3.757,0.879c1.177,0.59,2.156,1.419,2.942,2.49l-1.631,1.133c-0.592-0.801-1.33-1.424-2.229-1.867
	c-0.898-0.444-1.842-0.668-2.84-0.668c-1.734,0-3.222,0.618-4.458,1.854c-1.252,1.24-1.876,2.734-1.876,4.481
	c0,1.751,0.624,3.244,1.876,4.48c1.236,1.236,2.724,1.855,4.458,1.855c2.05,0,3.711-0.802,4.979-2.398v-2.942h-4.979v-1.991h6.948
	v5.568C182.192,240.802,181.197,241.719,179.977,242.383z"/>
<path fill="#3A3938" d="M199.275,242.973v-15.838h11.089v1.991h-9.12v4.93h7.128v1.991h-7.128v4.959h9.12v1.967H199.275z"/>
<path fill="#3A3938" d="M237.178,242.271c-1.22,0.738-2.619,1.107-4.186,1.107c-1.568,0-2.976-0.378-4.21-1.133
	c-1.419-0.871-2.126-2.058-2.126-3.552h1.967c0,0.967,0.521,1.685,1.56,2.149c0.786,0.365,1.723,0.544,2.81,0.544
	c1.1,0,2.035-0.179,2.804-0.544c1.024-0.465,1.539-1.183,1.539-2.149c0-1.203-0.888-2.013-2.669-2.419
	c-0.815-0.166-1.639-0.332-2.469-0.498c-0.828-0.166-1.649-0.332-2.465-0.498c-1.794-0.681-2.692-1.983-2.692-3.917
	c0-1.419,0.657-2.572,1.971-3.46c1.144-0.768,2.473-1.153,3.981-1.153c1.493,0,2.82,0.386,3.982,1.153
	c1.294,0.875,1.945,2.029,1.945,3.46h-1.967c0-0.904-0.46-1.589-1.381-2.058c-0.757-0.395-1.615-0.589-2.58-0.589
	c-0.502,0-0.959,0.05-1.38,0.149c-0.423,0.095-0.823,0.236-1.201,0.419c-0.919,0.498-1.38,1.19-1.38,2.078
	c0,1.237,0.889,2.071,2.67,2.49l4.958,1.021c1.779,0.676,2.668,1.95,2.668,3.821C239.327,240.176,238.609,241.366,237.178,242.271z"
	/>
<path fill="#3A3938" d="M261.978,229.126v13.847h-1.991v-13.847h-5.137v-1.991h12.265v1.991H261.978z"/>
<path fill="#3A3938" d="M291.346,242.973l-1.311-3.552h-6.81l-1.294,3.552h-2.104l5.775-15.838h2.1l5.771,15.838H291.346z
	 M286.641,230.031l-2.688,7.397h5.382L286.641,230.031z"/>
<path fill="#3A3938" d="M308.997,242.973v-15.838h1.971v13.871h7.124v1.967H308.997z"/>
<path fill="#3A3938" d="M337.913,229.126v13.847h-1.992v-13.847h-5.137v-1.991h12.266v1.991H337.913z"/>
<path fill="#3A3938" d="M358.779,242.973v-15.838h11.087v1.991h-9.12v4.93h7.129v1.991h-7.129v4.959h9.12v1.967H358.779z"/>
<path fill="#3A3938" d="M397.268,242.973l-3.602-5.544c-0.602-0.921-1.589-1.382-2.962-1.382h-2.374v6.926h-1.971v-15.838h6.718
	c1.315,0,2.461,0.406,3.439,1.22c1.013,0.892,1.519,1.967,1.519,3.236c0,1.042-0.34,1.946-1.017,2.714
	c-0.651,0.771-1.502,1.29-2.56,1.564c0.382,0.028,0.896,0.547,1.56,1.56l3.602,5.544H397.268z M395.094,229.757
	c-0.561-0.423-1.229-0.631-2.017-0.631h-4.747v4.93h4.747c0.801,0,1.478-0.216,2.017-0.655c0.631-0.465,0.95-1.071,0.95-1.81
	S395.725,230.238,395.094,229.757z"/>
<path fill="#3A3938" d="M414.645,242.973v-15.838h1.967v15.838H414.645z"/>
<path fill="#3A3938" d="M443.814,242.973l-8.714-12.266v12.266h-1.971v-15.838h1.971l8.714,12.286v-12.286h1.987v15.838H443.814z"/>
<rect y="180.406" fill="none" width="451.555" height="35.414"/>
<text transform="matrix(1 0 0 1 0 214.1992)" fill="#3A3938" font-family="'Axis'" font-size="47.7993">C</text>
<text transform="matrix(1 0 0 1 34.1284 214.1992)" fill="#3A3938" font-family="'Axis'" font-size="47.7993">H</text>
<text transform="matrix(1 0 0 1 68.8306 214.1992)" fill="#3A3938" font-family="'Axis'" font-size="47.7993">A</text>
<text transform="matrix(1 0 0 1 105.9229 214.1992)" fill="#3A3938" font-family="'Axis'" font-size="47.7993">R</text>
<text transform="matrix(1 0 0 1 140.4814 214.1992)" fill="#3A3938" font-family="'Axis'" font-size="47.7993">L</text>
<text transform="matrix(1 0 0 1 170.8818 214.1992)" fill="#3A3938" font-family="'Axis'" font-size="47.7993">O</text>
<text transform="matrix(1 0 0 1 206.6357 214.1992)" fill="#3A3938" font-family="'Axis'" font-size="47.7993">T</text>
<text transform="matrix(1 0 0 1 241.29 214.1992)" fill="#3A3938" font-family="'Axis'" font-size="47.7993">T</text>
<text transform="matrix(1 0 0 1 275.9443 214.1992)" fill="#3A3938" font-family="'Axis'" font-size="47.7993"> </text>
<text transform="matrix(1 0 0 1 296.0674 214.1992)" fill="#3A3938" font-family="'Axis'" font-size="47.7993">F</text>
<text transform="matrix(1 0 0 1 324.7949 214.1992)" fill="#3A3938" font-family="'Axis'" font-size="47.7993">E</text>
<text transform="matrix(1 0 0 1 352.7568 214.1992)" fill="#3A3938" font-family="'Axis'" font-size="47.7993">I</text>
<text transform="matrix(1 0 0 1 366.1875 214.1992)" fill="#3A3938" font-family="'Axis'" font-size="47.7993">B</text>
<text transform="matrix(1 0 0 1 398.9297 214.1992)" fill="#3A3938" font-family="'Axis'" font-size="47.7993">I</text>
<text transform="matrix(1 0 0 1 412.3613 214.1992)" fill="#3A3938" font-family="'Axis'" font-size="47.7993">G</text>
</svg>
